<?xml version="1.0" standalone="no"?>
<!DOCTYPE svg PUBLIC "-//W3C//DTD SVG 20010904//EN"
 "http://www.w3.org/TR/2001/REC-SVG-20010904/DTD/svg10.dtd">
<svg version="1.0" xmlns="http://www.w3.org/2000/svg"
 width="500.000000pt" height="500.000000pt" viewBox="0 0 500.000000 500.000000"
 preserveAspectRatio="xMidYMid meet">

<g transform="translate(0.000000,500.000000) scale(0.100000,-0.100000)"
fill="#000000" stroke="none">
<path d="M2972 3752 c-9 -6 1 -11 32 -15 128 -18 197 -109 150 -198 -19 -37
-83 -69 -139 -69 -57 0 -178 31 -415 105 -353 110 -430 125 -539 105 -127 -23
-243 -92 -305 -183 -48 -70 -67 -134 -67 -229 -1 -124 54 -223 152 -273 l31
-16 -26 44 c-30 50 -33 92 -11 144 21 50 42 72 90 94 76 35 82 34 650 -116 99
-26 230 -58 290 -70 l110 -22 3 -216 2 -216 -100 -82 c-55 -45 -100 -85 -99
-88 0 -3 45 -42 100 -85 l99 -79 0 -304 0 -304 -63 -29 c-140 -63 -330 -76
-461 -31 -107 38 -270 144 -299 196 -6 12 49 43 258 147 l265 133 0 457 c0
252 -3 458 -7 457 -5 0 -152 -64 -328 -143 -176 -79 -321 -142 -323 -141 -6 5
34 86 72 145 54 82 117 147 191 197 73 48 53 54 -49 14 -297 -119 -527 -373
-608 -672 -28 -107 -30 -311 -4 -434 63 -290 253 -529 515 -648 84 -38 225
-73 326 -82 184 -16 413 54 582 178 169 125 299 376 310 597 l5 95 -32 -60
c-48 -89 -85 -139 -158 -216 -58 -62 -150 -139 -166 -139 -3 0 -6 132 -6 293
l0 292 106 84 c58 46 102 87 97 91 -4 4 -52 42 -105 85 l-98 77 0 214 0 213
38 6 c122 20 172 41 244 104 57 51 94 123 109 216 28 168 -51 294 -222 354
-65 23 -178 36 -197 23z m-692 -1387 l0 -445 -71 -36 c-67 -33 -72 -34 -90
-18 -29 26 -104 180 -134 274 -47 149 -44 365 8 515 13 36 20 41 143 96 71 32
132 59 137 59 4 0 7 -200 7 -445z"/>
</g>
</svg>
